<svg xmlns="http://www.w3.org/2000/svg" viewBox="0 0 225.6 281.25"><defs><style>.cls-1{fill:#fff;}</style></defs><title>Asset 13</title><g id="Layer_2" data-name="Layer 2"><g id="Layer_1-2" data-name="Layer 1"><path class="cls-1" d="M187.78,153.85h0a6,6,0,0,1-6-6c0-3.29.07-6.58.12-9.87.51-31.66,1-61.56-27.83-80.77a74.1,74.1,0,0,0-22.25-9.89,6,6,0,1,1,3.06-11.6,86,86,0,0,1,25.85,11.51C195,70,194.43,104.65,193.9,138.13c-.05,3.25-.1,6.5-.12,9.75A6,6,0,0,1,187.78,153.85Z"/><path class="cls-1" d="M117.18,252.77c-1.62,0-3.13,0-4.54-.09l-.7,0a6,6,0,1,1,.82-12h.33c9.6.44,25-.76,45.82-3.59,19.38-2.63,39-6.1,50.13-8.17a165.89,165.89,0,0,1-18.75-33.63,6,6,0,0,1,11.12-4.5,160.69,160.69,0,0,0,22.91,38.52,6,6,0,0,1-3.55,9.59c-.3.06-30.49,6-60.24,10.08C142,251.5,127.46,252.77,117.18,252.77Z"/><path class="cls-1" d="M108.44,252.77c-9.66,0-23.14-1.12-40.17-3.35C37.49,245.36,5.16,239,4.83,238.9a6,6,0,0,1-3.55-9.59c13.63-17.36,30-44.15,30.5-73.16.11-6,0-12.11-.08-18.05C31.17,104.63,30.63,70,64.87,47.19A85.78,85.78,0,0,1,88.13,36.4a6,6,0,0,1,3.4,11.51,73.93,73.93,0,0,0-20,9.26c-28.8,19.21-28.33,49.1-27.83,80.74.09,6,.19,12.29.08,18.46-.5,28.15-14,53.93-27.23,72.55,11.77,2.18,32.89,5.91,53.28,8.6,19.25,2.52,33.62,3.58,42.7,3.16h.32a6,6,0,1,1,.82,12l-.68,0C111.58,252.74,110.07,252.77,108.44,252.77Z"/><path class="cls-1" d="M111.42,61a30.52,30.52,0,1,1,30.52-30.52A30.55,30.55,0,0,1,111.42,61Zm0-49a18.52,18.52,0,1,0,18.52,18.52A18.54,18.54,0,0,0,111.42,12Z"/><path class="cls-1" d="M114.4,281.25a51.35,51.35,0,0,1-49-35.67,6,6,0,0,1,11.42-3.69,39.49,39.49,0,0,0,75.28-.38,6,6,0,0,1,11.46,3.57A51.25,51.25,0,0,1,114.4,281.25Z"/><path class="cls-1" d="M67.4,147.46a6,6,0,0,1-5.88-4.87C52.09,93.43,81.34,73.48,82.59,72.66a6,6,0,0,1,6.64,10c-1,.72-23.77,16.79-15.93,57.68a6,6,0,0,1-4.76,7A6.29,6.29,0,0,1,67.4,147.46Z"/></g></g></svg>