<?xml version="1.0" standalone="no"?>
<?xml-stylesheet type="text/css" href="test.css"?>
<svg xmlns="http://www.w3.org/2000/svg" xmlns:xlink="http://www.w3.org/1999/xlink" version="1.1" x="0" y="0" viewBox="0 0 72 72" xml:space="preserve">
  <g id="Layer_2">
    <rect class="st0" width="72" height="72"/>
  </g>
  <g id="Layer_1">
    <polygon class="st1" points="69.3 68.5 63.9 65.1 58.4 68.5 52.9 65.1 47.4 68.5 41.8 65.1 36.4 68.5 30.8 65.1 25.3 68.5 19.9 65.1 14.3 68.5 8.8 65.1 2.5 68.5 2.5 3.3 69.3 3.3 "/>
    <rect x="40.4" y="21.4" class="st1" width="21.5" height="17.3"/>
    <line class="st1" x1="40.4" y1="56" x2="62" y2="56"/>
    <line class="st1" x1="40.4" y1="47.3" x2="62" y2="47.3"/>
    <line class="st1" x1="10" y1="12.8" x2="62" y2="12.8"/>
    <line class="st1" x1="10" y1="21.5" x2="31.6" y2="21.5"/>
    <line class="st1" x1="10" y1="30.1" x2="31.6" y2="30.1"/>
    <line class="st1" x1="10" y1="38.7" x2="31.6" y2="38.7"/>
    <line class="st1" x1="10" y1="56" x2="31.6" y2="56"/>
    <line class="st1" x1="10" y1="47.3" x2="31.6" y2="47.3"/>
  </g>
</svg>
