<?xml version="1.0" encoding="utf-8"?>
<!-- Generator: Adobe Illustrator 21.1.0, SVG Export Plug-In . SVG Version: 6.00 Build 0)  -->
<svg version="1.1" id="Layer_1" xmlns="http://www.w3.org/2000/svg" xmlns:xlink="http://www.w3.org/1999/xlink" x="0px" y="0px"
	 viewBox="0 0 72 72" style="enable-background:new 0 0 72 72;" xml:space="preserve">
<style type="text/css">
	.st0{fill:none;stroke:#000000;stroke-width:2;stroke-linejoin:round;stroke-miterlimit:10;}
	.st1{fill:none;stroke:#000000;stroke-width:2;stroke-linecap:round;stroke-linejoin:round;stroke-miterlimit:10;}
</style>
<g id="Layer_1_1_">
	<polygon class="st0" points="69.7,9 69.7,62.7 1.7,62.7 1.7,20.3 12.9,20.3 13,9 	"/>
	<line class="st1" x1="1.7" y1="20.3" x2="13" y2="9"/>
	<line class="st1" x1="8.4" y1="54.4" x2="46.3" y2="54.4"/>
	<line class="st1" x1="8.4" y1="45.9" x2="33.5" y2="45.9"/>
	<line class="st1" x1="8.4" y1="28.9" x2="19.4" y2="28.9"/>
	<line class="st1" x1="8.4" y1="37.4" x2="27" y2="37.4"/>
	<path class="st1" d="M58.6,30.4c0,6-4.9,10.9-10.9,10.9s-10.9-4.9-10.9-10.9s4.9-10.9,10.9-10.9v10.9H58.6z"/>
	<path class="st1" d="M52.5,14.7v10.9h10.9C63.4,19.6,58.6,14.7,52.5,14.7z"/>
</g>
</svg>
