<svg xmlns="http://www.w3.org/2000/svg" viewBox="0 0 195.61 197.88"><defs><style>.cls-1{fill:#fff;}</style></defs><title>Asset 12</title><g id="Layer_2" data-name="Layer 2"><g id="Layer_1-2" data-name="Layer 1"><path class="cls-1" d="M188.13,60.2H134.32a6,6,0,0,1-6-6V6a6,6,0,0,1,10-4.47l53.81,48.2a6,6,0,0,1-4,10.47Zm-47.81-12h32.12L140.32,19.43Z"/><path class="cls-1" d="M189.61,197.88a6,6,0,0,1-6-6V56.93L132.07,12H51.47V85.76a6,6,0,1,1-12,0V6a6,6,0,0,1,6-6h88.85a6,6,0,0,1,3.94,1.48l55.29,48.2a6,6,0,0,1,2.06,4.52V191.88A6,6,0,0,1,189.61,197.88Z"/><path class="cls-1" d="M112.32,197.88H45.47a6,6,0,0,1-6-6V151.33a6,6,0,0,1,12,0v34.55h60.85a6,6,0,0,1,0,12Z"/><path class="cls-1" d="M188.13,60.2H134.32a6,6,0,0,1-6-6V6a6,6,0,0,1,10-4.47l53.81,48.2a6,6,0,0,1-4,10.47Zm-47.81-12h32.12L140.32,19.43Z"/><path class="cls-1" d="M189.61,197.88a6,6,0,0,1-6-6V174.36a6,6,0,0,1,12,0v17.52A6,6,0,0,1,189.61,197.88Z"/><path class="cls-1" d="M134.32,157.33H6a6,6,0,0,1-6-6V85.76a6,6,0,0,1,6-6H134.32a6,6,0,0,1,6,6v65.57A6,6,0,0,1,134.32,157.33ZM12,145.33H128.32V91.76H12Z"/><path class="cls-1" d="M42.92,126.46H29.22c-.41,0-.82,0-1.22-.06a5,5,0,1,1,1-10h14a3.23,3.23,0,0,0,3.2-3.2,3.24,3.24,0,0,0-3.2-3.2H29a5,5,0,1,1-1-9.95c.4,0,.81-.06,1.22-.06h13.7a13.2,13.2,0,0,1,0,26.4Z"/><path class="cls-1" d="M28.48,139a5,5,0,0,1-5-5V105.06a5,5,0,1,1,10,0V134A5,5,0,0,1,28.48,139Z"/><path class="cls-1" d="M69.05,139H62.93a5,5,0,0,1,0-10h6.12a11.88,11.88,0,0,0,8-3,8.72,8.72,0,0,0,3.08-6.5c0-5.22-5-9.46-11.07-9.46H62.93a5,5,0,0,1,0-10h6.12c11.62,0,21.07,8.73,21.07,19.46a18.64,18.64,0,0,1-6.39,13.94A21.87,21.87,0,0,1,69.05,139Z"/><path class="cls-1" d="M97.38,139a5,5,0,0,1-5-5V105.06a5,5,0,0,1,10,0V134A5,5,0,0,1,97.38,139Z"/><path class="cls-1" d="M115.32,110.06H98a5,5,0,1,1,0-10h17.36a5,5,0,0,1,0,10Z"/><path class="cls-1" d="M115.32,126.46H98a5,5,0,0,1,0-10h17.36a5,5,0,0,1,0,10Z"/><path class="cls-1" d="M62.93,139a5,5,0,0,1-5-5V105.06a5,5,0,0,1,10,0V134A5,5,0,0,1,62.93,139Z"/></g></g></svg>