<?xml version="1.0" encoding="utf-8"?>
<!-- Generator: Adobe Illustrator 24.0.1, SVG Export Plug-In . SVG Version: 6.00 Build 0)  -->
<svg version="1.1" id="Layer_1" xmlns="http://www.w3.org/2000/svg" xmlns:xlink="http://www.w3.org/1999/xlink" x="0px" y="0px"
	 viewBox="0 0 28 28" style="enable-background:new 0 0 28 28;" xml:space="preserve">
<style type="text/css">
	.st0{fill:#0C464C;}
	.st1{fill:#FFFFFF;}
</style>
<path id="Rectangle_108" class="st0" d="M14,0L14,0c7.73,0,14,6.27,14,14l0,0c0,7.73-6.27,14-14,14l0,0C6.27,28,0,21.73,0,14l0,0
	C0,6.27,6.27,0,14,0z"/>
<g id="Bz29bi.tif" transform="translate(9.136 22.189) rotate(-90)">
	<g id="Group_1" transform="translate(0 0)">
		<path id="Path_2" class="st1" d="M7.99,6.48C7.94,6.41,7.91,6.38,7.88,6.35L1.77,0.24C1.61-0.01,1.29-0.07,1.04,0.09
			C0.99,0.13,0.94,0.17,0.9,0.23C0.67,0.45,0.45,0.68,0.22,0.9C-0.01,1.07-0.07,1.39,0.1,1.62c0.03,0.05,0.08,0.09,0.12,0.12
			l7.33,7.34c0.16,0.24,0.49,0.3,0.73,0.14c0.05-0.04,0.1-0.08,0.14-0.14C8.8,8.71,9.18,8.34,9.55,7.96l6.2-6.2
			c0.24-0.16,0.3-0.49,0.13-0.73c-0.04-0.05-0.08-0.1-0.13-0.13c-0.15-0.14-0.29-0.29-0.44-0.44c-0.08-0.09-0.17-0.17-0.25-0.25
			c-0.17-0.23-0.49-0.28-0.73-0.11c-0.04,0.03-0.08,0.07-0.11,0.11C12.18,2.26,10.14,4.3,8.1,6.34C8.06,6.39,8.03,6.43,7.99,6.48z"
			/>
		<path id="Path_3" class="st1" d="M7.99,6.48c0.03-0.05,0.06-0.1,0.1-0.14c2.04-2.04,4.09-4.09,6.13-6.13
			c0.17-0.23,0.49-0.28,0.73-0.11c0.04,0.03,0.08,0.07,0.11,0.11c0.08,0.08,0.17,0.17,0.25,0.25c0.15,0.15,0.29,0.29,0.44,0.44
			c0.24,0.16,0.3,0.49,0.13,0.73c-0.04,0.05-0.08,0.1-0.13,0.13l-6.2,6.2C9.17,8.33,8.8,8.71,8.42,9.08
			c-0.16,0.24-0.49,0.3-0.73,0.14c-0.05-0.04-0.1-0.08-0.14-0.14L0.22,1.75c-0.23-0.17-0.29-0.49-0.12-0.72
			C0.13,0.98,0.17,0.93,0.22,0.9C0.45,0.68,0.67,0.45,0.9,0.23c0.17-0.24,0.49-0.3,0.73-0.14c0.06,0.04,0.1,0.09,0.14,0.14
			l6.11,6.11C7.91,6.38,7.94,6.41,7.99,6.48z"/>
	</g>
</g>
</svg>
