<svg xmlns="http://www.w3.org/2000/svg" viewBox="0 0 212.24 235.92"><title>Asset 1</title><g id="Layer_2" data-name="Layer 2"><g id="Layer_1-2" data-name="Layer 1"><path d="M124.31,31.82H88.07a6,6,0,0,1,0-12h36.24a6,6,0,0,1,0,12Z"/><path d="M206.24,235.92H6a6,6,0,0,1-6-6V25.82a6,6,0,0,1,6-6H35a6,6,0,0,1,0,12H12v192.1H200.24V31.82H177.38a6,6,0,0,1,0-12h28.86a6,6,0,0,1,6,6v204.1A6,6,0,0,1,206.24,235.92Z"/><path d="M68.54,146.26H35a6,6,0,0,1-6-6V98.92a6,6,0,0,1,6-6H68.54a6,6,0,0,1,6,6v41.34A6,6,0,0,1,68.54,146.26ZM41,134.26H62.54V104.92H41Z"/><path d="M68.54,53.33H35a6,6,0,0,1-6-6V6a6,6,0,0,1,6-6H68.54a6,6,0,0,1,6,6V47.33A6,6,0,0,1,68.54,53.33ZM41,41.33H62.54V12H41Z"/><path d="M177.33,53.33H143.8a6,6,0,0,1-6-6V6a6,6,0,0,1,6-6h33.53a6,6,0,0,1,6,6V47.33A6,6,0,0,1,177.33,53.33Zm-27.53-12h21.53V12H149.8Z"/><path d="M122.6,146.26H89.07a6,6,0,0,1-6-6V98.92a6,6,0,0,1,6-6H122.6a6,6,0,0,1,6,6v41.34A6,6,0,0,1,122.6,146.26Zm-27.53-12H116.6V104.92H95.07Z"/><path d="M177.14,146.26H143.61a6,6,0,0,1-6-6V98.92a6,6,0,0,1,6-6h33.53a6,6,0,0,1,6,6v41.34A6,6,0,0,1,177.14,146.26Zm-27.53-12h21.53V104.92H149.61Z"/><path d="M68.54,210.59H35a6,6,0,0,1-6-6V163.26a6,6,0,0,1,6-6H68.54a6,6,0,0,1,6,6v41.33A6,6,0,0,1,68.54,210.59ZM41,198.59H62.54V169.26H41Z"/><path d="M122.6,210.59H89.07a6,6,0,0,1-6-6V163.26a6,6,0,0,1,6-6H122.6a6,6,0,0,1,6,6v41.33A6,6,0,0,1,122.6,210.59Zm-27.53-12H116.6V169.26H95.07Z"/><path d="M177.14,210.59H143.61a6,6,0,0,1-6-6V163.26a6,6,0,0,1,6-6h33.53a6,6,0,0,1,6,6v41.33A6,6,0,0,1,177.14,210.59Zm-27.53-12h21.53V169.26H149.61Z"/><path d="M177.48,78.92H35a6,6,0,0,1,0-12H177.48a6,6,0,0,1,0,12Z"/></g></g></svg>