<svg xmlns="http://www.w3.org/2000/svg" viewBox="0 0 212.24 155.06"><defs><style>.cls-1{fill:#0c464c;}</style></defs><title>Asset 6</title><g id="Layer_2" data-name="Layer 2"><g id="Layer_1-2" data-name="Layer 1"><path class="cls-1" d="M206.24,155.06H6a6,6,0,0,1-6-6V6A6,6,0,0,1,6,0H206.24a6,6,0,0,1,6,6V149.06A6,6,0,0,1,206.24,155.06ZM12,143.06H200.24V12H12Z"/><path class="cls-1" d="M106.12,85.53a6,6,0,0,1-3.16-.9L24.53,36a6,6,0,1,1,6.33-10.19L106.1,72.46l74.4-46.64A6,6,0,0,1,186.88,36L109.31,84.62A6,6,0,0,1,106.12,85.53Z"/><path class="cls-1" d="M28.11,134.3a6,6,0,0,1-4.38-10.1L67.9,77a6,6,0,0,1,8.76,8.2L32.49,132.4A6,6,0,0,1,28.11,134.3Z"/><path class="cls-1" d="M183.54,134.34a6,6,0,0,1-4.42-1.94L135.38,84.85a6,6,0,1,1,8.83-8.13L188,124.28a6,6,0,0,1-4.41,10.06Z"/></g></g></svg>