<?xml version="1.0" encoding="utf-8"?>
<!-- Generator: Adobe Illustrator 23.1.1, SVG Export Plug-In . SVG Version: 6.00 Build 0)  -->
<svg version="1.1" id="Layer_1" xmlns="http://www.w3.org/2000/svg" xmlns:xlink="http://www.w3.org/1999/xlink" x="0px" y="0px"
	 viewBox="0 0 43 41" style="enable-background:new 0 0 43 41;" xml:space="preserve">
<style type="text/css">
	.st0{fill:#0C464C;stroke:#0C464C;}
</style>
<g id="QcVD03" transform="translate(499.038 -1384.298)">
	<g id="Group_97" transform="translate(-498.519 1384.795)">
		<path id="Path_25" class="st0" d="M21.03,2.67c6.39,0,12.78-0.01,19.17,0.02c0.49,0.09,0.96,0.26,1.39,0.5
			c-0.1,0.48-0.29,0.95-0.56,1.36c-3.09,3.12-6.23,6.19-9.36,9.28c-1.8,1.78-3.58,3.57-5.4,5.32c-0.46,0.43-0.7,1.04-0.65,1.67
			c0.03,3.59,0,7.19,0.03,10.78c0.07,0.71-0.3,1.38-0.95,1.69c-2.21,1.22-4.39,2.51-6.59,3.74c-1.21,0.68-1.82,0.32-1.82-1.07
			c-0.01-5.06-0.02-10.12,0.01-15.17c0.03-0.63-0.22-1.23-0.68-1.66C10.97,14.56,6.33,9.98,1.7,5.39C1.3,5.04,0.93,4.66,0.6,4.24
			c-0.21-0.31-0.28-0.7-0.2-1.07c0.09-0.24,0.55-0.39,0.88-0.49c0.26-0.04,0.53-0.05,0.79-0.02L21.03,2.67z M38.03,4.59H3.7
			L3.56,4.84c0.3,0.2,0.59,0.43,0.87,0.67c4.2,4.13,8.37,8.28,12.6,12.38c0.75,0.65,1.15,1.61,1.11,2.6
			c-0.06,4.39-0.03,8.78-0.03,13.18v1.23c1.79-1.02,3.36-1.95,4.96-2.8c0.52-0.23,0.83-0.77,0.76-1.33
			c-0.03-3.59-0.04-7.19,0.02-10.78c0.03-0.61,0.26-1.19,0.67-1.64c2.1-2.17,4.31-4.25,6.43-6.41C33.35,9.5,35.71,7.01,38.03,4.59
			L38.03,4.59z"/>
	</g>
</g>
</svg>
