<svg xmlns="http://www.w3.org/2000/svg" viewBox="0 0 156.14 197.88"><title>Asset 8</title><g id="Layer_2" data-name="Layer 2"><g id="Layer_1-2" data-name="Layer 1"><path d="M148.66,60.2H94.85a6,6,0,0,1-6-6V6a6,6,0,0,1,10-4.47l53.81,48.2a6,6,0,0,1-4,10.47Zm-47.81-12H133L100.85,19.43Z"/><path d="M150.14,197.88a6,6,0,0,1-6-6V56.93L92.6,12H12V185.88H72.85a6,6,0,1,1,0,12H6a6,6,0,0,1-6-6V6A6,6,0,0,1,6,0H94.85a6,6,0,0,1,3.94,1.48l55.29,48.2a6,6,0,0,1,2.06,4.52V191.88A6,6,0,0,1,150.14,197.88Z"/><path d="M148.66,60.2H94.85a6,6,0,0,1-6-6V6a6,6,0,0,1,10-4.47l53.81,48.2a6,6,0,0,1-4,10.47Zm-47.81-12H133L100.85,19.43Z"/><path d="M72.61,60.2H30.52a6,6,0,1,1,0-12H72.61a6,6,0,0,1,0,12Z"/><path d="M124.75,91.37H30.52a6,6,0,1,1,0-12h94.23a6,6,0,0,1,0,12Z"/><path d="M124.75,122.55H30.52a6,6,0,1,1,0-12h94.23a6,6,0,0,1,0,12Z"/><path d="M124.75,153.73H30.52a6,6,0,0,1,0-12h94.23a6,6,0,1,1,0,12Z"/><path d="M150.14,197.88a6,6,0,0,1-6-6V174.36a6,6,0,0,1,12,0v17.52A6,6,0,0,1,150.14,197.88Z"/></g></g></svg>