<svg xmlns="http://www.w3.org/2000/svg" viewBox="0 0 156.14 197.88"><defs><style>.cls-1{fill:#fff;}</style></defs><title>Asset 16</title><g id="Layer_2" data-name="Layer 2"><g id="Layer_1-2" data-name="Layer 1"><path class="cls-1" d="M148.66,60.2H94.85a6,6,0,0,1-6-6V6a6,6,0,0,1,10-4.47l53.81,48.2a6,6,0,0,1-4,10.47Zm-47.81-12H133L100.85,19.43Z"/><path class="cls-1" d="M150.14,197.88a6,6,0,0,1-6-6V56.93L92.6,12H12V185.88H72.85a6,6,0,1,1,0,12H6a6,6,0,0,1-6-6V6A6,6,0,0,1,6,0H94.85a6,6,0,0,1,3.94,1.48l55.29,48.2a6,6,0,0,1,2.06,4.52V191.88A6,6,0,0,1,150.14,197.88Z"/><path class="cls-1" d="M148.66,60.2H94.85a6,6,0,0,1-6-6V6a6,6,0,0,1,10-4.47l53.81,48.2a6,6,0,0,1-4,10.47Zm-47.81-12H133L100.85,19.43Z"/><path class="cls-1" d="M150.14,197.88a6,6,0,0,1-6-6V174.36a6,6,0,0,1,12,0v17.52A6,6,0,0,1,150.14,197.88Z"/><path class="cls-1" d="M103,157a21,21,0,0,1-15.5-6.81l-12-13.08A6,6,0,1,1,84.4,129l12,13.08a9,9,0,0,0,12.72.56l2.52-2.31a9,9,0,0,0,.57-12.72l-23.6-25.79a9,9,0,0,0-12.72-.56l-.49.44a6,6,0,0,1-8.11-8.84l.49-.45a21,21,0,0,1,29.69,1.31L121,119.47a21,21,0,0,1-1.31,29.67l-2.53,2.31A20.94,20.94,0,0,1,103,157Z"/><path class="cls-1" d="M72.19,126.23a21,21,0,0,1-15.5-6.81L33.1,93.63A21,21,0,0,1,34.41,64l2.53-2.32A21,21,0,0,1,66.61,63L78.59,76a6,6,0,0,1-8.85,8.11l-12-13.08A9,9,0,0,0,45,70.49l-2.52,2.32A9,9,0,0,0,42,85.52l23.6,25.79a9,9,0,0,0,12.72.57l.48-.44a6,6,0,1,1,8.12,8.83l-.49.45A21,21,0,0,1,72.19,126.23Z"/></g></g></svg>