<svg id="Layer_1" data-name="Layer 1" xmlns="http://www.w3.org/2000/svg" viewBox="0 0 25 25"><defs><style>.cls-1{fill:#339b47;}</style></defs><title>icons</title><path id="Path_7" data-name="Path 7" class="cls-1" d="M11.66,21.25a9.22,9.22,0,1,1,5.82-1.38l-2.28-3.5-1.4,6.72,6.75,1.41.05-.05-1.66-2.54,0,0,.08-.06A11.66,11.66,0,1,0,.85,11.59a11.36,11.36,0,0,0,3.79,9.12,10.48,10.48,0,0,0,5.78,2.74c.25,0,.51,0,.77.06Z"/><path id="Path_8" data-name="Path 8" class="cls-1" d="M11.66,21.25l-.47,2.27c-.26,0-.52,0-.77-.07a10.54,10.54,0,0,1-5.79-2.74A11.37,11.37,0,0,1,.85,11.6,11.64,11.64,0,1,1,19.06,21.81l-.09.06,0,0,1.66,2.54-.05.05L13.8,23.09l1.4-6.72,2.28,3.5a9.44,9.44,0,1,0-5.83,1.38Z"/></svg>