<svg xmlns="http://www.w3.org/2000/svg" viewBox="0 0 152.12 207.13"><defs><style>.cls-1{fill:#fff;}</style></defs><title>Asset 13</title><g id="Layer_2" data-name="Layer 2"><g id="Layer_1-2" data-name="Layer 1"><path class="cls-1" d="M6,207.13a6,6,0,0,1-6-6V159.54c0-19.65,18.86-35.63,42.05-35.63h68c23.18,0,42,16,42,35.63v41.59a6,6,0,0,1-6,6H97a6,6,0,0,1,0-12h43.08V159.54c0-13-13.48-23.63-30-23.63h-68c-16.57,0-30,10.6-30,23.63v41.59A6,6,0,0,1,6,207.13Z"/><path class="cls-1" d="M76.67,112.59A56.3,56.3,0,1,1,133,56.3,56.35,56.35,0,0,1,76.67,112.59ZM76.67,12A44.3,44.3,0,1,0,121,56.3,44.34,44.34,0,0,0,76.67,12Z"/></g></g></svg>