<svg xmlns="http://www.w3.org/2000/svg" viewBox="0 0 165.84 162.73"><title>Asset 5</title><g id="Layer_2" data-name="Layer 2"><g id="Layer_1-2" data-name="Layer 1"><path d="M67.76,129.83a67.94,67.94,0,0,1-53.9-109.1A67.27,67.27,0,0,1,38.12.82a6,6,0,0,1,5.26,10.79A55.4,55.4,0,0,0,23.4,28a55.94,55.94,0,1,0,78.38-10.61,57,57,0,0,0-9.77-6A6,6,0,1,1,97.2.59a68.4,68.4,0,0,1,11.86,7.26,67.92,67.92,0,0,1,12.88,95.2A67.47,67.47,0,0,1,77,129.2,68.68,68.68,0,0,1,67.76,129.83Z"/><path d="M159.84,162.73A6,6,0,0,1,155.6,161L107.66,113a6,6,0,0,1,8.48-8.48l48,47.94a6,6,0,0,1-4.25,10.25Z"/></g></g></svg>